<?xml version="1.0" encoding="UTF-8" standalone="yes"?>
<svg width="1892" height="1892" viewBox="0 0 1892 1892" fill="none" version="1.2" baseProfile="tiny-ps" xmlns="http://www.w3.org/2000/svg">
  <title>bimi-svg-tiny-12-ps</title>
  <rect width="1892" height="1892" fill="#1E1E1E"/>
  <g>
    <path d="M1420.23 778.27L1450.78 869.92C1452.09 873.8 1451.08 878.09 1448.18 880.99L974.01 1355.16C969.79 1359.37 969.78 1366.2 973.99 1370.42C975.17 1371.61 976.62 1372.5 978.21 1373.03L1241.7 1460.86C1245.58 1462.16 1249.87 1461.16 1252.77 1458.26L1458.25 1252.78C1461.15 1249.88 1462.15 1245.59 1460.85 1241.71L1439.85 1178.7C1437.96 1173.05 1431.85 1170 1426.2 1171.88C1424.61 1172.41 1423.16 1173.31 1421.98 1174.49L1231.39 1365.09C1227.16 1369.29 1220.34 1369.29 1216.11 1365.09L1155.02 1303.98C1150.8 1299.77 1150.8 1292.93 1155.02 1288.71L1469.18 974.54C1473.39 970.32 1480.22 970.31 1484.44 974.52C1485.63 975.7 1486.52 977.15 1487.05 978.74L1584.43 1270.87C1585.73 1274.75 1584.73 1279.04 1581.83 1281.94L1281.94 1581.83C1279.04 1584.73 1274.75 1585.73 1270.87 1584.43L778.26 1420.22C772.61 1418.33 769.56 1412.22 771.44 1406.57C771.97 1404.98 772.87 1403.53 774.05 1402.35L1402.36 774.07C1406.57 769.85 1413.4 769.84 1417.62 774.05C1418.81 775.23 1419.7 776.68 1420.23 778.27Z" fill="#59FD7E"/>
    <path d="M1115.96 487.67L487.67 1115.96C483.43 1120.18 476.57 1120.16 472.35 1115.92C471.18 1114.74 470.29 1113.3 469.76 1111.73L439.21 1020.08C437.92 1016.2 438.94 1011.92 441.84 1009.04L916.01 534.87C920.23 530.63 920.21 523.77 915.97 519.55C914.79 518.38 913.35 517.49 911.78 516.96L848.77 495.96C844.89 494.67 840.61 495.69 837.73 498.59L420.84 915.48C416.6 919.7 409.74 919.68 405.52 915.44C404.35 914.26 403.46 912.82 402.93 911.25L305.55 619.11C304.26 615.23 305.28 610.95 308.18 608.07L608.07 308.19C610.95 305.28 615.23 304.26 619.11 305.55L710.76 336.1C716.43 338 719.49 344.14 717.59 349.82C717.06 351.4 716.17 352.83 715 354.01L431.76 637.25C428.85 640.13 427.83 644.41 429.13 648.29L450.13 711.3C452.03 716.97 458.17 720.03 463.85 718.13C465.43 717.6 466.86 716.71 468.04 715.54L808.55 375.02C811.43 372.11 815.71 371.09 819.59 372.39L1111.72 469.77C1117.39 471.67 1120.45 477.81 1118.55 483.49C1118.02 485.07 1117.13 486.5 1115.96 487.68V487.67Z" fill="#59FD7E"/>
    <path d="M1134.02 1042.41L1042.37 1134.06C1046.59 1129.85 1046.59 1123.01 1042.37 1118.79L771.24 847.66C767.05 843.44 760.23 843.42 756.02 847.61L755.97 847.66L847.62 756.01C843.4 760.23 843.4 767.06 847.62 771.28L1118.75 1042.41C1122.98 1046.61 1129.8 1046.61 1134.03 1042.41H1134.02Z" fill="#F8F8F8"/>
    <path d="M1477.7 1386.09C1473.48 1390.31 1473.48 1397.14 1477.7 1401.36L1531.16 1454.82C1535.38 1459.03 1535.38 1465.87 1531.16 1470.09L1470.06 1531.2C1465.83 1535.4 1459.01 1535.4 1454.78 1531.2L1401.32 1477.74C1397.13 1473.52 1390.31 1473.5 1386.1 1477.69L1386.05 1477.74L1477.7 1386.09Z" fill="#F8F8F8"/>
    <path d="M503.93 412.33L412.28 503.98C416.5 499.76 416.5 492.93 412.28 488.71L358.83 435.24C354.61 431.02 354.61 424.19 358.83 419.97L419.93 358.87C424.12 354.65 430.93 354.63 435.15 358.82L435.2 358.87L488.66 412.33C492.89 416.52 499.7 416.52 503.93 412.33Z" fill="#F8F8F8"/>
  </g>
  <defs/>
</svg>
